<?xml version="1.0" encoding="UTF-8"?>
<svg id="flag-icons-sh-ac" xmlns="http://www.w3.org/2000/svg" version="1.1" viewBox="0 0 640 480">
  <!-- Generator: Adobe Illustrator 29.8.2, SVG Export Plug-In . SVG Version: 2.1.1 Build 3)  -->
  <defs>
    <style>
      .st0 {
        fill: #ed2939;
      }

      .st1 {
        fill: #0039a6;
      }

      .st2 {
        fill: #fff;
      }

      .st3 {
        fill: #f9e300;
      }
    </style>
  </defs>
  <path class="st1" d="M0,.28h640v480H0V.28Z"/>
  <g>
    <circle class="st2" cx="320" cy="240.28" r="144"/>
    <circle class="st0" cx="320" cy="240.28" r="137.25"/>
    <g id="asean-a">
      <path class="st3" d="M283.06,240.28c-24-14.44-35.06-43.12-35.06-72h11.06v.94c0,9.66,1.41,44.62,27.84,71.06-17.79,19.41-27.71,44.74-27.84,71.06v.94h-11.06c0-28.78,11.53-57.56,35.06-72"/>
      <path class="st3" d="M262.44,169.21v-.94h11.44v1.41c0,9.66,1.97,43.22,20.62,70.59-19.12,27.38-20.62,60.94-20.62,70.59v1.41h-11.44v-.94c0-9.66,2.34-44.63,27.84-71.06-17.79-19.41-27.71-44.74-27.84-71.06"/>
      <path class="st3" d="M298.91,240.28l-.94-.94c-13.25-20.81-20.28-44.98-20.25-69.66v-1.41h10.59v1.88c0,10.13,1.41,42.28,14.44,70.13-9.39,22.19-14.29,46.03-14.44,70.12v1.88h-10.5v-1.41c0-9.66.94-39.84,20.16-69.66"/>
      <path class="st3" d="M306.59,240.28c-9.79-22.73-14.71-47.26-14.44-72h11.06v3.38c0,12,.94,41.25,7.22,68.62-4.76,22.57-7.18,45.56-7.22,68.63v3.38h-10.59v-1.88c0-10.12.94-43.22,13.5-69.66"/>
      <path class="st3" d="M314.28,240.28c-4.63-22.58-6.9-45.58-6.75-68.62v-3.38h10.59v144h-10.59v-3.38c0-11.53,0-41.25,6.75-68.16"/>
    </g>
    <g id="asean-a1" data-name="asean-a">
      <path class="st3" d="M356.94,240.28c24-14.44,35.06-43.12,35.06-72h-11.06v.94c0,9.66-1.41,44.62-27.84,71.06,17.79,19.41,27.71,44.74,27.84,71.06v.94h11.06c0-28.78-11.53-57.56-35.06-72"/>
      <path class="st3" d="M377.56,169.21v-.94h-11.44v1.41c0,9.66-1.97,43.22-20.62,70.59,19.12,27.38,20.62,60.94,20.62,70.59v1.41h11.44v-.94c0-9.66-2.34-44.63-27.84-71.06,17.79-19.41,27.71-44.74,27.84-71.06"/>
      <path class="st3" d="M341.09,240.28l.94-.94c13.25-20.81,20.28-44.98,20.25-69.66v-1.41h-10.59v1.88c0,10.13-1.41,42.28-14.44,70.13,9.39,22.19,14.29,46.03,14.44,70.12v1.88h10.5v-1.41c0-9.66-.94-39.84-20.16-69.66"/>
      <path class="st3" d="M333.41,240.28c9.79-22.73,14.71-47.26,14.44-72h-11.06v3.38c0,12-.94,41.25-7.22,68.62,4.76,22.57,7.18,45.56,7.22,68.63v3.38h10.59v-1.88c0-10.12-.94-43.22-13.5-69.66"/>
      <path class="st3" d="M325.72,240.28c4.63-22.58,6.9-45.58,6.75-68.62v-3.38h-10.59v144h10.59v-3.38c0-11.53,0-41.25-6.75-68.16"/>
    </g>
  </g>
</svg>