<svg xmlns="http://www.w3.org/2000/svg" fill="none" viewBox="0 0 91 16" height="16" width="91">
<path fill="black" d="M45.1628 0L40.8766 10.5033L36.5247 0H33.7794L31.2939 16H34.0167L35.6875 5.18428L40.1216 16H41.6374L46.0465 5.18905L47.7436 16H50.5021L47.808 0H45.1628Z"></path>
<path fill="black" d="M45.1628 0L40.8766 10.5033L36.5247 0H33.7794L31.2939 16H34.0167L35.6875 5.18428L40.1216 16H41.6374L46.0465 5.18905L47.7436 16H50.5021L47.808 0H45.1628Z"></path>
<path fill="black" d="M6.76615 16L6.77208 2.15028H0.289062V0H16.2366V2.15028H9.62363L9.61646 16H6.76615Z"></path>
<path fill="black" d="M6.76615 16L6.77208 2.15028H0.289062V0H16.2366V2.15028H9.62363L9.61646 16H6.76615Z"></path>
<path fill="black" d="M57.0747 16L57.0842 0H70.3222L70.3198 2.37925H59.7855L59.7831 6.64283H68.9364L68.934 8.78117H59.7831L59.7795 13.6685H70.2494L70.247 16H57.0747Z"></path>
<path fill="black" d="M57.0747 16L57.0842 0H70.3222L70.3198 2.37925H59.7855L59.7831 6.64283H68.9364L68.934 8.78117H59.7831L59.7795 13.6685H70.2494L70.247 16H57.0747Z"></path>
<path fill="black" d="M21.5547 16L21.5618 0H24.3394L24.3132 16H21.5547Z"></path>
<path fill="black" d="M21.5547 16L21.5618 0H24.3394L24.3132 16H21.5547Z"></path>
<path fill="black" d="M75.1274 16L81.1632 7.57783L75.7189 0H79.2073L82.9998 5.35479L86.7899 0H90.2867L84.8078 7.57903L90.8615 16H87.3719L82.9975 9.29996L78.6182 16H75.1274Z"></path>
<path fill="black" d="M75.1274 16L81.1632 7.57783L75.7189 0H79.2073L82.9998 5.35479L86.7899 0H90.2867L84.8078 7.57903L90.8615 16H87.3719L82.9975 9.29996L78.6182 16H75.1274Z"></path>
</svg>
