<svg width="99" height="18" viewBox="0 0 99 18" fill="none" xmlns="http://www.w3.org/2000/svg">
<path d="M48.7912 0.70752L44.1656 12.0425L39.4692 0.70752H36.5064L33.8242 17.9744H36.7625L38.5657 6.30229L43.3509 17.9744H44.9867L49.7449 6.30743L51.5763 17.9744H54.5533L51.6458 0.70752H48.7912Z" fill="white"/>
<path d="M48.7912 0.70752L44.1656 12.0425L39.4692 0.70752H36.5064L33.8242 17.9744H36.7625L38.5657 6.30229L43.3509 17.9744H44.9867L49.7449 6.30743L51.5763 17.9744H54.5533L51.6458 0.70752H48.7912Z" fill="white"/>
<path d="M7.35712 17.9739L7.36352 3.02757H0.367188V0.707031H17.5774V3.02757H10.4409L10.4331 17.9739H7.35712Z" fill="white"/>
<path d="M7.35712 17.9739L7.36352 3.02757H0.367188V0.707031H17.5774V3.02757H10.4409L10.4331 17.9739H7.35712Z" fill="white"/>
<path d="M61.6484 17.9739L61.6587 0.707031H75.9448L75.9422 3.27466H64.5738L64.5713 7.87583H74.4493L74.4467 10.1835H64.5713L64.5674 15.4578H75.8663L75.8637 17.9739H61.6484Z" fill="white"/>
<path d="M61.6484 17.9739L61.6587 0.707031H75.9448L75.9422 3.27466H64.5738L64.5713 7.87583H74.4493L74.4467 10.1835H64.5713L64.5674 15.4578H75.8663L75.8637 17.9739H61.6484Z" fill="white"/>
<path d="M23.3164 17.9739L23.3241 0.707031H26.3216L26.2933 17.9739H23.3164Z" fill="white"/>
<path d="M23.3164 17.9739L23.3241 0.707031H26.3216L26.2933 17.9739H23.3164Z" fill="white"/>
<path d="M81.1328 17.9739L87.6465 8.88486L81.7711 0.707031H85.5358L89.6285 6.48581L93.7187 0.707031H97.4923L91.5796 8.88616L98.1127 17.9739H94.3468L89.626 10.7433L84.8999 17.9739H81.1328Z" fill="white"/>
<path d="M81.1328 17.9739L87.6465 8.88486L81.7711 0.707031H85.5358L89.6285 6.48581L93.7187 0.707031H97.4923L91.5796 8.88616L98.1127 17.9739H94.3468L89.626 10.7433L84.8999 17.9739H81.1328Z" fill="white"/>
</svg>
